# xmcd
#
# Track frame offsets:
# 150
# 11181
# 20592
# 33173
# 45781
# 60036
# 72059
# 85409
# 103578
# 113325
# 125250
# 144960
# 158385
# 174128
# 186546
# 198857
# 210980
# 221579
# 231476
# 242723
#
# Disc length: 3382 seconds
#
#
# Revision: 0
# Processed by: cddbd v1.5.1PL2 Copyright (c) Steve Scherf et al.
# Submitted via: FreeRIP 2.944 
#
DISCID=f50d3414
DTITLE=Tonico e Tinoco - As 20 Mais (prj)
DYEAR=1900
DGENRE=Caipira
TTITLE0=Baile na Roça
TTITLE1=Canta Moçada
TTITLE2=Mourão da Porteira
TTITLE3=Velhas Cartas
TTITLE4=O Gondoleiro do Amor
TTITLE5=Saudade de Ouro Preto
TTITLE6=Cabocla
TTITLE7=Cabocla Tereza
TTITLE8=Ciriema
TTITLE9=Mamãe,Mamãe,Mamãe
TTITLE10=João Palhaço
TTITLE11=Rei do Gado
TTITLE12=Ferreirinha
TTITLE13=Burro Picaço
TTITLE14=Pingo D'água
TTITLE15=Cavalo Preto
TTITLE16=Mineirinha
TTITLE17=Na Beira da Tuia
TTITLE18=Adeus Mariana
TTITLE19=Fim de Baile
EXTD=
EXTT0=
EXTT1=
EXTT2=
EXTT3=
EXTT4=
EXTT5=
EXTT6=
EXTT7=
EXTT8=
EXTT9=
EXTT10=
EXTT11=
EXTT12=
EXTT13=
EXTT14=
EXTT15=
EXTT16=
EXTT17=
EXTT18=
EXTT19=
PLAYORDER=
